<svg xmlns="http://www.w3.org/2000/svg" viewBox="0 0 7410 3900">
<rect width="7410" height="3900" fill="#B22234"/>
<g fill="#FFFFFF">
<rect y="300" width="7410" height="300"/>
<rect y="900" width="7410" height="300"/>
<rect y="1500" width="7410" height="300"/>
<rect y="2100" width="7410" height="300"/>
<rect y="2700" width="7410" height="300"/>
<rect y="3300" width="7410" height="300"/>
</g>
<rect width="2964" height="2100" fill="#3C3B6E"/>
<g fill="#FFFFFF">
<polygon points="247.0,20.0 289.7,151.3 427.7,151.3 316.0,232.4 358.7,363.7 247.0,282.6 135.3,363.7 178.0,232.4 66.3,151.3 204.3,151.3"/>
<polygon points="741.0,20.0 783.7,151.3 921.7,151.3 810.0,232.4 852.7,363.7 741.0,282.6 629.3,363.7 672.0,232.4 560.3,151.3 698.3,151.3"/>
<polygon points="1235.0,20.0 1277.7,151.3 1415.7,151.3 1304.0,232.4 1346.7,363.7 1235.0,282.6 1123.3,363.7 1166.0,232.4 1054.3,151.3 1192.3,151.3"/>
<polygon points="1729.0,20.0 1771.7,151.3 1909.7,151.3 1798.0,232.4 1840.7,363.7 1729.0,282.6 1617.3,363.7 1660.0,232.4 1548.3,151.3 1686.3,151.3"/>
<polygon points="2223.0,20.0 2265.7,151.3 2403.7,151.3 2292.0,232.4 2334.7,363.7 2223.0,282.6 2111.3,363.7 2154.0,232.4 2042.3,151.3 2180.3,151.3"/>
<polygon points="2717.0,20.0 2759.7,151.3 2897.7,151.3 2786.0,232.4 2828.7,363.7 2717.0,282.6 2605.3,363.7 2648.0,232.4 2536.3,151.3 2674.3,151.3"/>
<polygon points="247.0,440.0 289.7,571.3 427.7,571.3 316.0,652.4 358.7,783.7 247.0,702.6 135.3,783.7 178.0,652.4 66.3,571.3 204.3,571.3"/>
<polygon points="741.0,440.0 783.7,571.3 921.7,571.3 810.0,652.4 852.7,783.7 741.0,702.6 629.3,783.7 672.0,652.4 560.3,571.3 698.3,571.3"/>
<polygon points="1235.0,440.0 1277.7,571.3 1415.7,571.3 1304.0,652.4 1346.7,783.7 1235.0,702.6 1123.3,783.7 1166.0,652.4 1054.3,571.3 1192.3,571.3"/>
<polygon points="1729.0,440.0 1771.7,571.3 1909.7,571.3 1798.0,652.4 1840.7,783.7 1729.0,702.6 1617.3,783.7 1660.0,652.4 1548.3,571.3 1686.3,571.3"/>
<polygon points="2223.0,440.0 2265.7,571.3 2403.7,571.3 2292.0,652.4 2334.7,783.7 2223.0,702.6 2111.3,783.7 2154.0,652.4 2042.3,571.3 2180.3,571.3"/>
<polygon points="2717.0,440.0 2759.7,571.3 2897.7,571.3 2786.0,652.4 2828.7,783.7 2717.0,702.6 2605.3,783.7 2648.0,652.4 2536.3,571.3 2674.3,571.3"/>
<polygon points="247.0,860.0 289.7,991.3 427.7,991.3 316.0,1072.4 358.7,1203.7 247.0,1122.6 135.3,1203.7 178.0,1072.4 66.3,991.3 204.3,991.3"/>
<polygon points="741.0,860.0 783.7,991.3 921.7,991.3 810.0,1072.4 852.7,1203.7 741.0,1122.6 629.3,1203.7 672.0,1072.4 560.3,991.3 698.3,991.3"/>
<polygon points="1235.0,860.0 1277.7,991.3 1415.7,991.3 1304.0,1072.4 1346.7,1203.7 1235.0,1122.6 1123.3,1203.7 1166.0,1072.4 1054.3,991.3 1192.3,991.3"/>
<polygon points="1729.0,860.0 1771.7,991.3 1909.7,991.3 1798.0,1072.4 1840.7,1203.7 1729.0,1122.6 1617.3,1203.7 1660.0,1072.4 1548.3,991.3 1686.3,991.3"/>
<polygon points="2223.0,860.0 2265.7,991.3 2403.7,991.3 2292.0,1072.4 2334.7,1203.7 2223.0,1122.6 2111.3,1203.7 2154.0,1072.4 2042.3,991.3 2180.3,991.3"/>
<polygon points="2717.0,860.0 2759.7,991.3 2897.7,991.3 2786.0,1072.4 2828.7,1203.7 2717.0,1122.6 2605.3,1203.7 2648.0,1072.4 2536.3,991.3 2674.3,991.3"/>
<polygon points="247.0,1280.0 289.7,1411.3 427.7,1411.3 316.0,1492.4 358.7,1623.7 247.0,1542.6 135.3,1623.7 178.0,1492.4 66.3,1411.3 204.3,1411.3"/>
<polygon points="741.0,1280.0 783.7,1411.3 921.7,1411.3 810.0,1492.4 852.7,1623.7 741.0,1542.6 629.3,1623.7 672.0,1492.4 560.3,1411.3 698.3,1411.3"/>
<polygon points="1235.0,1280.0 1277.7,1411.3 1415.7,1411.3 1304.0,1492.4 1346.7,1623.7 1235.0,1542.6 1123.3,1623.7 1166.0,1492.4 1054.3,1411.3 1192.3,1411.3"/>
<polygon points="1729.0,1280.0 1771.7,1411.3 1909.7,1411.3 1798.0,1492.4 1840.7,1623.7 1729.0,1542.6 1617.3,1623.7 1660.0,1492.4 1548.3,1411.3 1686.3,1411.3"/>
<polygon points="2223.0,1280.0 2265.7,1411.3 2403.7,1411.3 2292.0,1492.4 2334.7,1623.7 2223.0,1542.6 2111.3,1623.7 2154.0,1492.4 2042.3,1411.3 2180.3,1411.3"/>
<polygon points="2717.0,1280.0 2759.7,1411.3 2897.7,1411.3 2786.0,1492.4 2828.7,1623.7 2717.0,1542.6 2605.3,1623.7 2648.0,1492.4 2536.3,1411.3 2674.3,1411.3"/>
<polygon points="247.0,1700.0 289.7,1831.3 427.7,1831.3 316.0,1912.4 358.7,2043.7 247.0,1962.6 135.3,2043.7 178.0,1912.4 66.3,1831.3 204.3,1831.3"/>
<polygon points="741.0,1700.0 783.7,1831.3 921.7,1831.3 810.0,1912.4 852.7,2043.7 741.0,1962.6 629.3,2043.7 672.0,1912.4 560.3,1831.3 698.3,1831.3"/>
<polygon points="1235.0,1700.0 1277.7,1831.3 1415.7,1831.3 1304.0,1912.4 1346.7,2043.7 1235.0,1962.6 1123.3,2043.7 1166.0,1912.4 1054.3,1831.3 1192.3,1831.3"/>
<polygon points="1729.0,1700.0 1771.7,1831.3 1909.7,1831.3 1798.0,1912.4 1840.7,2043.7 1729.0,1962.6 1617.3,2043.7 1660.0,1912.4 1548.3,1831.3 1686.3,1831.3"/>
<polygon points="2223.0,1700.0 2265.7,1831.3 2403.7,1831.3 2292.0,1912.4 2334.7,2043.7 2223.0,1962.6 2111.3,2043.7 2154.0,1912.4 2042.3,1831.3 2180.3,1831.3"/>
<polygon points="2717.0,1700.0 2759.7,1831.3 2897.7,1831.3 2786.0,1912.4 2828.7,2043.7 2717.0,1962.6 2605.3,2043.7 2648.0,1912.4 2536.3,1831.3 2674.3,1831.3"/>
<polygon points="494.0,230.0 536.7,361.3 674.7,361.3 563.0,442.4 605.7,573.7 494.0,492.6 382.3,573.7 425.0,442.4 313.3,361.3 451.3,361.3"/>
<polygon points="988.0,230.0 1030.7,361.3 1168.7,361.3 1057.0,442.4 1099.7,573.7 988.0,492.6 876.3,573.7 919.0,442.4 807.3,361.3 945.3,361.3"/>
<polygon points="1482.0,230.0 1524.7,361.3 1662.7,361.3 1551.0,442.4 1593.7,573.7 1482.0,492.6 1370.3,573.7 1413.0,442.4 1301.3,361.3 1439.3,361.3"/>
<polygon points="1976.0,230.0 2018.7,361.3 2156.7,361.3 2045.0,442.4 2087.7,573.7 1976.0,492.6 1864.3,573.7 1907.0,442.4 1795.3,361.3 1933.3,361.3"/>
<polygon points="2470.0,230.0 2512.7,361.3 2650.7,361.3 2539.0,442.4 2581.7,573.7 2470.0,492.6 2358.3,573.7 2401.0,442.4 2289.3,361.3 2427.3,361.3"/>
<polygon points="494.0,650.0 536.7,781.3 674.7,781.3 563.0,862.4 605.7,993.7 494.0,912.6 382.3,993.7 425.0,862.4 313.3,781.3 451.3,781.3"/>
<polygon points="988.0,650.0 1030.7,781.3 1168.7,781.3 1057.0,862.4 1099.7,993.7 988.0,912.6 876.3,993.7 919.0,862.4 807.3,781.3 945.3,781.3"/>
<polygon points="1482.0,650.0 1524.7,781.3 1662.7,781.3 1551.0,862.4 1593.7,993.7 1482.0,912.6 1370.3,993.7 1413.0,862.4 1301.3,781.3 1439.3,781.3"/>
<polygon points="1976.0,650.0 2018.7,781.3 2156.7,781.3 2045.0,862.4 2087.7,993.7 1976.0,912.6 1864.3,993.7 1907.0,862.4 1795.3,781.3 1933.3,781.3"/>
<polygon points="2470.0,650.0 2512.7,781.3 2650.7,781.3 2539.0,862.4 2581.7,993.7 2470.0,912.6 2358.3,993.7 2401.0,862.4 2289.3,781.3 2427.3,781.3"/>
<polygon points="494.0,1070.0 536.7,1201.3 674.7,1201.3 563.0,1282.4 605.7,1413.7 494.0,1332.6 382.3,1413.7 425.0,1282.4 313.3,1201.3 451.3,1201.3"/>
<polygon points="988.0,1070.0 1030.7,1201.3 1168.7,1201.3 1057.0,1282.4 1099.7,1413.7 988.0,1332.6 876.3,1413.7 919.0,1282.4 807.3,1201.3 945.3,1201.3"/>
<polygon points="1482.0,1070.0 1524.7,1201.3 1662.7,1201.3 1551.0,1282.4 1593.7,1413.7 1482.0,1332.6 1370.3,1413.7 1413.0,1282.4 1301.3,1201.3 1439.3,1201.3"/>
<polygon points="1976.0,1070.0 2018.7,1201.3 2156.7,1201.3 2045.0,1282.4 2087.7,1413.7 1976.0,1332.6 1864.3,1413.7 1907.0,1282.4 1795.3,1201.3 1933.3,1201.3"/>
<polygon points="2470.0,1070.0 2512.7,1201.3 2650.7,1201.3 2539.0,1282.4 2581.7,1413.7 2470.0,1332.6 2358.3,1413.7 2401.0,1282.4 2289.3,1201.3 2427.3,1201.3"/>
<polygon points="494.0,1490.0 536.7,1621.3 674.7,1621.3 563.0,1702.4 605.7,1833.7 494.0,1752.6 382.3,1833.7 425.0,1702.4 313.3,1621.3 451.3,1621.3"/>
<polygon points="988.0,1490.0 1030.7,1621.3 1168.7,1621.3 1057.0,1702.4 1099.7,1833.7 988.0,1752.6 876.3,1833.7 919.0,1702.4 807.3,1621.3 945.3,1621.3"/>
<polygon points="1482.0,1490.0 1524.7,1621.3 1662.7,1621.3 1551.0,1702.4 1593.7,1833.7 1482.0,1752.6 1370.3,1833.7 1413.0,1702.4 1301.3,1621.3 1439.3,1621.3"/>
<polygon points="1976.0,1490.0 2018.7,1621.3 2156.7,1621.3 2045.0,1702.4 2087.7,1833.7 1976.0,1752.6 1864.3,1833.7 1907.0,1702.4 1795.3,1621.3 1933.3,1621.3"/>
<polygon points="2470.0,1490.0 2512.7,1621.3 2650.7,1621.3 2539.0,1702.4 2581.7,1833.7 2470.0,1752.6 2358.3,1833.7 2401.0,1702.4 2289.3,1621.3 2427.3,1621.3"/>
</g>
</svg>
